<?xml version="1.0" standalone="no"?>
<!DOCTYPE svg PUBLIC "-//W3C//DTD SVG 20010904//EN"
 "http://www.w3.org/TR/2001/REC-SVG-20010904/DTD/svg10.dtd">
<svg version="1.0" xmlns="http://www.w3.org/2000/svg"
 width="370.000000pt" height="158.000000pt" viewBox="0 0 370.000000 158.000000"
 preserveAspectRatio="xMidYMid meet">

<g transform="translate(0.000000,158.000000) scale(0.100000,-0.100000)"
fill="#000000" stroke="none">
<path d="M1952 1187 c-41 -124 -114 -313 -177 -455 -28 -61 -28 -63 -9 -77 10
-8 22 -15 26 -15 4 0 34 53 67 117 l58 117 26 -50 c14 -27 33 -75 41 -105 18
-62 58 -110 72 -87 5 7 37 67 71 133 61 120 62 120 103 127 42 7 53 16 85 70
l16 27 -46 -16 c-25 -8 -48 -13 -51 -10 -3 3 18 54 46 113 l51 108 -39 39 -38
38 -58 -155 c-32 -85 -63 -159 -69 -164 -14 -11 -177 -36 -184 -28 -3 2 19 62
49 133 92 216 87 189 42 234 l-39 39 -43 -133z m146 -325 c-18 -46 -64 -142
-69 -142 -3 0 -19 28 -34 63 -16 34 -30 65 -33 69 -3 7 38 13 106 16 19 1 32
-2 30 -6z"/>
<path d="M400 1278 c-1 -56 -27 -160 -47 -183 -10 -13 -40 -49 -66 -81 -56
-69 -132 -215 -142 -272 -9 -56 15 -102 54 -102 49 0 126 108 195 273 3 9 8 8
18 -4 7 -8 40 -21 73 -27 32 -7 63 -16 68 -21 14 -14 -44 -73 -98 -97 -27 -13
-72 -27 -98 -30 l-48 -7 33 -34 c29 -30 37 -33 68 -28 79 14 190 109 190 161
0 48 -37 93 -86 105 -24 6 -44 14 -44 18 0 4 39 29 87 56 106 61 213 161 213
199 0 16 -13 41 -33 63 l-34 36 -49 -12 c-27 -7 -77 -28 -111 -46 -54 -30 -63
-32 -63 -17 0 17 -58 82 -73 82 -4 0 -7 -15 -7 -32z m327 -35 c7 -20 -71 -89
-184 -163 -58 -39 -108 -69 -110 -67 -1 2 4 27 12 55 14 45 23 57 79 96 70 50
163 97 185 94 8 -2 16 -8 18 -15z m-422 -320 c-14 -57 -95 -213 -111 -213 -18
0 -14 18 22 98 22 49 82 142 92 142 2 0 1 -12 -3 -27z"/>
<path d="M1497 1256 c-61 -56 -179 -277 -217 -403 -21 -69 -109 -133 -183
-133 l-39 0 7 37 c11 60 61 143 87 143 14 0 9 -33 -9 -52 -22 -25 -10 -33 26
-18 48 19 54 33 30 64 -31 40 -49 46 -93 31 -49 -17 -82 -49 -112 -106 -20
-40 -87 -100 -98 -88 -2 2 2 26 9 54 9 33 10 56 4 67 -10 19 -29 24 -29 9 0
-14 -109 -101 -126 -101 -31 0 -11 38 50 96 65 62 70 74 31 74 -57 0 -160 -98
-186 -177 -10 -31 -9 -38 9 -55 18 -19 21 -19 49 -4 17 8 51 31 76 50 l46 35
-6 -35 c-6 -38 9 -64 37 -64 10 0 40 15 67 34 48 33 49 33 59 13 5 -11 20 -29
35 -39 22 -17 31 -18 75 -8 27 6 73 26 102 46 l52 34 0 -24 c0 -22 31 -56 52
-56 4 0 21 28 38 63 29 60 108 163 117 153 2 -2 -8 -40 -23 -84 -29 -88 -28
-108 11 -118 35 -9 72 9 131 60 64 57 51 69 -17 17 -86 -65 -89 -58 -36 86 15
41 15 43 -6 58 -33 23 -60 18 -105 -21 -64 -54 -53 -16 16 59 102 110 172 221
172 271 0 26 -32 56 -61 56 -9 0 -28 -11 -42 -24z m63 -38 c0 -35 -123 -228
-137 -215 -4 5 78 174 104 214 19 29 33 29 33 1z"/>
<path d="M887 1045 c-32 -47 -35 -56 -22 -61 11 -5 31 8 61 37 41 40 43 44 27
61 -9 10 -19 18 -22 18 -3 -1 -23 -25 -44 -55z"/>
<path d="M2504 1058 c-47 -68 -46 -68 -29 -74 11 -5 31 8 61 37 41 40 43 44
27 61 -23 25 -27 23 -59 -24z"/>
<path d="M2401 918 c-52 -26 -92 -82 -98 -142 -5 -38 -2 -48 20 -70 35 -35 65
-33 125 7 27 19 66 37 86 40 34 5 36 4 36 -22 0 -46 22 -56 68 -32 22 11 53
32 70 46 16 14 32 25 36 25 3 0 4 -17 3 -37 -2 -32 2 -38 25 -47 29 -10 61 7
141 78 54 48 31 52 -28 5 -72 -56 -72 -55 -50 51 3 14 1 32 -4 40 -9 12 -16 9
-48 -21 -79 -74 -123 -97 -123 -64 0 17 81 102 120 127 l25 16 -29 7 c-39 10
-85 -15 -151 -82 -27 -28 -62 -56 -77 -62 l-28 -10 6 42 c5 34 2 45 -14 61
-21 18 -21 18 -41 -15 -12 -19 -21 -44 -21 -55 0 -26 -36 -74 -56 -74 -36 0
-5 90 54 153 23 24 24 29 11 42 -13 13 -20 12 -58 -7z"/>
</g>
</svg>
